<svg xmlns="http://www.w3.org/2000/svg" viewBox="0 0 548.18 540.79"><defs><style>.cls-1{fill:#231f20;}</style></defs><g id="Layer_2" data-name="Layer 2"><g id="Layer_1-2" data-name="Layer 1"><path class="cls-1" d="M271,540.79c-1.18-.32-2.37-.6-3.53-1-8.68-2.72-13.23-11.6-11.23-21.88a17.48,17.48,0,0,1,34.57,3.69c.09,10.85-3.81,15.66-15.49,19.16Z"/><path class="cls-1" d="M81.72,284.25c-6.19,0-12.45,0-18.71,0-5,0-6.6-1.62-6.61-6.67,0-7.29,0-14.59,0-21.88,0-4.88,1.81-6.63,6.76-6.56q6.77.12,13.54.29c4.82.11,7.3-2.22,8.09-7.75,2.58-18,7-35.46,14.87-51.8,27-55.71,69.7-92.35,130.57-106.62,5.87-1.38,11.89-2.17,17.85-3.16,5.65-.93,7.8-3.39,7.86-9.12,0-3.59.07-7.19.28-10.77.23-4.13,2.2-6.4,6.29-6.53q10.75-.36,21.52,0c4.11.13,5.71,1.68,6.21,5.82a102.35,102.35,0,0,1,.42,11.36c.07,6,2.41,8.58,8.33,9.31,33.44,4.15,63.4,16.76,90.18,37.13,38.37,29.18,61,68.19,71.62,114.69.95,4.19,1.24,8.52,2,12.75.67,3.79,1.56,4.46,5.33,4.48,5.65,0,11.3,0,17,0s6.75,1.2,6.67,6.7c-.09,7.08-.07,14.18-.58,21.23-.32,4.39-2.41,6.16-6.78,6.5-5.32.4-10.66.45-16,.68-1.33.06-2.65.19-3.68.27-16.51,99.53-74.13,157.72-174,175.05,0,5.13-.08,10.95,0,16.76.15,9.66-.35,10.2-9.81,10.14-6.06,0-12.13,0-18.19.06-5.49.06-7.17-1.75-7.1-7.51.07-6.45,0-12.9,0-19.46-7.16-1.54-14.18-2.88-21.13-4.56-29.73-7.21-57.35-19-81.51-38.11-26.28-20.78-44.57-47.38-56.48-78.47A277.92,277.92,0,0,1,88,311.91C85.53,302.93,83.84,293.76,81.72,284.25ZM255.66,422.32c0-1.38,0-2.49,0-3.61l-.06-35.45c0-4-1.46-6-5.29-7.21-3.32-1.05-6.69-1.94-10-3.06-21.37-7.28-39.73-18.92-53.62-37-10.4-13.57-16.89-28.94-21.09-45.39-1.1-4.29-3.62-6.21-7.91-6.22l-35.77-.09h-3C124.43,357.22,188.76,417.59,255.66,422.32Zm35.34.4c36.38-3.9,67-19.25,92.4-44.77,25.56-25.67,41.65-56.08,43.82-93.18H384.71c-.51,2.27-.94,4.37-1.47,6.45-11.09,43.44-37.83,71.73-81.21,84a44.1,44.1,0,0,0-8.33,3,5.2,5.2,0,0,0-2.32,3.82c-.33,12.53-.42,25.06-.56,37.59C290.81,420.46,290.92,421.35,291,422.72ZM255.82,115.8c-1-.09-1.47-.19-2-.18a103.87,103.87,0,0,0-31,5.65c-24.83,8.47-45.79,22.87-63.57,42-19.11,20.51-32.89,43.94-37.82,71.94-.77,4.37-1.17,8.8-1.75,13.3h45a6.45,6.45,0,0,0,.43-.91,12.63,12.63,0,0,0,.37-1.5,105.92,105.92,0,0,1,29.83-57.15,110.43,110.43,0,0,1,53-29.75c5.19-1.29,7.23-4,7.3-9.13.05-3,.2-6,.21-8.93C255.84,132.7,255.82,124.31,255.82,115.8ZM428,249.1c-1.76-8.14-3-15.85-5.12-23.32-8.93-31.51-27-57.07-52-77.78-16.64-13.74-35.14-24.08-56.25-29.32a74.11,74.11,0,0,0-23.32-2.31c0,12.45,0,24.67.09,36.89,0,.82,1.24,2,2.17,2.38,7.36,3.09,14.77,6.06,22.19,9C347.43,177.28,369.18,199.4,380,232c1.51,4.56,2.85,9.18,4.38,13.73a4.27,4.27,0,0,0,4.66,3.18c2.66-.12,5.34.21,8,.21C407.08,249.12,417.14,249.1,428,249.1ZM290.89,340.61c2.37-.45,4.52-.67,6.57-1.27,20.58-6,35.1-19.41,45.29-37.75,2.21-4,2.9-8.85,4.07-13.36.63-2.43-.51-3.35-3.15-3.33-16.64.11-33.29.05-49.94.06-.9,0-1.79.09-2.84.14ZM291.61,195v53.33h55.82c-1-3.8-1.46-7.41-2.85-10.63C336.92,220,324.07,207,306.92,198.35A28.44,28.44,0,0,0,291.61,195ZM255.28,339.61V285H201.54C201.46,306.55,234.7,339.87,255.28,339.61Zm-.19-91.17V195c-22.74,2.39-52.1,30.9-52.91,53.48Z"/><path class="cls-1" d="M18.22,248.43c10.57,0,18.38,7.38,18.37,17.35,0,9.77-9,18.82-18.67,18.77-9.82,0-18-8.69-17.92-18.9C.1,255.15,7.22,248.41,18.22,248.43Z"/><path class="cls-1" d="M548.18,266.7c-.08,10.36-7.53,18.14-17.33,18.1S512.21,275.94,512.2,266c0-10.27,7.89-17.66,18.83-17.6C541.45,248.49,548.26,255.75,548.18,266.7Z"/><path class="cls-1" d="M290.81,18.48c-.05,11-7,18-17.77,18-10.29-.08-17.26-7.41-17.35-18.25C255.61,7.79,263.34,0,273.62,0,283.52.05,290.85,7.94,290.81,18.48Z"/></g></g></svg>